solid OpenSCAD_Model
  facet normal 0 1 -0
    outer loop
      vertex 33.95 17.6 0.799999
      vertex 22.1136 17.6 70
      vertex 33.95 17.6 70
    endloop
  endfacet
  facet normal 0 1 0
    outer loop
      vertex 22.1136 17.6 70
      vertex 33.95 17.6 0.799999
      vertex -22.1136 17.6 70
    endloop
  endfacet
  facet normal 0 1 0
    outer loop
      vertex -33.95 17.6 0.799999
      vertex -22.1136 17.6 70
      vertex 33.95 17.6 0.799999
    endloop
  endfacet
  facet normal 0 1 0
    outer loop
      vertex -22.1136 17.6 70
      vertex -33.95 17.6 0.799999
      vertex -33.95 17.6 70
    endloop
  endfacet
  facet normal 0 1 0
    outer loop
      vertex 22.1136 17.6 70
      vertex 17.1136 17.6 75
      vertex 19.027 17.6 74.6194
    endloop
  endfacet
  facet normal 0 1 0
    outer loop
      vertex 17.1136 17.6 75
      vertex 22.1136 17.6 70
      vertex -17.1136 17.6 75
    endloop
  endfacet
  facet normal 0 1 0
    outer loop
      vertex 22.1136 17.6 70
      vertex 19.027 17.6 74.6194
      vertex 20.6492 17.6 73.5355
    endloop
  endfacet
  facet normal 0 1 0
    outer loop
      vertex -22.1136 17.6 70
      vertex -17.1136 17.6 75
      vertex 22.1136 17.6 70
    endloop
  endfacet
  facet normal 0 1 0
    outer loop
      vertex 22.1136 17.6 70
      vertex 20.6492 17.6 73.5355
      vertex 21.733 17.6 71.9134
    endloop
  endfacet
  facet normal 0 1 0
    outer loop
      vertex -17.1136 17.6 75
      vertex -22.1136 17.6 70
      vertex -19.0271 17.6 74.6194
    endloop
  endfacet
  facet normal 0 1 0
    outer loop
      vertex -19.0271 17.6 74.6194
      vertex -22.1136 17.6 70
      vertex -20.6492 17.6 73.5355
    endloop
  endfacet
  facet normal 0 1 0
    outer loop
      vertex -20.6492 17.6 73.5355
      vertex -22.1136 17.6 70
      vertex -21.733 17.6 71.9134
    endloop
  endfacet
  facet normal 0 -1 0
    outer loop
      vertex -33.95 16.8 0.799999
      vertex -22.1136 16.8 70
      vertex -33.95 16.8 70
    endloop
  endfacet
  facet normal 0 -1 -0
    outer loop
      vertex -22.1136 16.8 70
      vertex -33.95 16.8 0.799999
      vertex 22.1136 16.8 70
    endloop
  endfacet
  facet normal 0 -1 0
    outer loop
      vertex 33.95 16.8 0.799999
      vertex 22.1136 16.8 70
      vertex -33.95 16.8 0.799999
    endloop
  endfacet
  facet normal 0 -1 0
    outer loop
      vertex 22.1136 16.8 70
      vertex 33.95 16.8 0.799999
      vertex 33.95 16.8 70
    endloop
  endfacet
  facet normal 0 -1 0
    outer loop
      vertex -22.1136 16.8 70
      vertex -17.1136 16.8 75
      vertex -19.0271 16.8 74.6194
    endloop
  endfacet
  facet normal 0 -1 -0
    outer loop
      vertex -17.1136 16.8 75
      vertex -22.1136 16.8 70
      vertex 17.1136 16.8 75
    endloop
  endfacet
  facet normal 0 -1 0
    outer loop
      vertex -22.1136 16.8 70
      vertex -19.0271 16.8 74.6194
      vertex -20.6492 16.8 73.5355
    endloop
  endfacet
  facet normal 0 -1 0
    outer loop
      vertex 22.1136 16.8 70
      vertex 17.1136 16.8 75
      vertex -22.1136 16.8 70
    endloop
  endfacet
  facet normal 0 -1 0
    outer loop
      vertex -22.1136 16.8 70
      vertex -20.6492 16.8 73.5355
      vertex -21.733 16.8 71.9134
    endloop
  endfacet
  facet normal 0 -1 0
    outer loop
      vertex 17.1136 16.8 75
      vertex 22.1136 16.8 70
      vertex 19.027 16.8 74.6194
    endloop
  endfacet
  facet normal 0 -1 0
    outer loop
      vertex 19.027 16.8 74.6194
      vertex 22.1136 16.8 70
      vertex 20.6492 16.8 73.5355
    endloop
  endfacet
  facet normal 0 -1 0
    outer loop
      vertex 20.6492 16.8 73.5355
      vertex 22.1136 16.8 70
      vertex 21.733 16.8 71.9134
    endloop
  endfacet
  facet normal -0.555587 0 0.831458
    outer loop
      vertex -20.6492 17.6 73.5355
      vertex -19.0271 16.8 74.6194
      vertex -19.0271 17.6 74.6194
    endloop
  endfacet
  facet normal -0.555587 0 0.831458
    outer loop
      vertex -19.0271 16.8 74.6194
      vertex -20.6492 17.6 73.5355
      vertex -20.6492 16.8 73.5355
    endloop
  endfacet
  facet normal -0.831482 0 0.555552
    outer loop
      vertex -21.733 16.8 71.9134
      vertex -20.6492 17.6 73.5355
      vertex -21.733 17.6 71.9134
    endloop
  endfacet
  facet normal -0.831482 0 0.555552
    outer loop
      vertex -20.6492 17.6 73.5355
      vertex -21.733 16.8 71.9134
      vertex -20.6492 16.8 73.5355
    endloop
  endfacet
  facet normal -0.980785 0 0.195091
    outer loop
      vertex -22.1136 16.8 70
      vertex -21.733 17.6 71.9134
      vertex -22.1136 17.6 70
    endloop
  endfacet
  facet normal -0.980785 0 0.195091
    outer loop
      vertex -21.733 17.6 71.9134
      vertex -22.1136 16.8 70
      vertex -21.733 16.8 71.9134
    endloop
  endfacet
  facet normal 0 0 1
    outer loop
      vertex -22.1136 52 70
      vertex -33.95 51.2 70
      vertex -22.1136 51.2 70
    endloop
  endfacet
  facet normal 0 0 1
    outer loop
      vertex -34.75 52 70
      vertex -33.95 34.8 70
      vertex -33.95 51.2 70
    endloop
  endfacet
  facet normal 0 0 1
    outer loop
      vertex -33.95 34.8 70
      vertex -34.75 52 70
      vertex -33.95 34 70
    endloop
  endfacet
  facet normal 0 0 1
    outer loop
      vertex -33.95 34 70
      vertex -34.75 52 70
      vertex -33.95 17.6 70
    endloop
  endfacet
  facet normal 0 0 1
    outer loop
      vertex -34.75 -0.400001 70
      vertex -33.95 17.6 70
      vertex -34.75 52 70
    endloop
  endfacet
  facet normal 0 0 1
    outer loop
      vertex -33.95 16.8 70
      vertex -34.75 -0.400001 70
      vertex -33.95 0.4 70
    endloop
  endfacet
  facet normal 0 0 1
    outer loop
      vertex -33.95 0.4 70
      vertex -34.75 -0.400001 70
      vertex -33.95 -0.4 70
    endloop
  endfacet
  facet normal -0 0 1
    outer loop
      vertex -34.75 52 70
      vertex -33.95 51.2 70
      vertex -22.1136 52 70
    endloop
  endfacet
  facet normal 0 0 1
    outer loop
      vertex -33.95 17.6 70
      vertex -34.75 -0.400001 70
      vertex -33.95 16.8 70
    endloop
  endfacet
  facet normal 0 0 1
    outer loop
      vertex -33.95 -0.4 70
      vertex -34.75 -0.400001 70
      vertex -33.95 -0.400001 70
    endloop
  endfacet
  facet normal -0 0 1
    outer loop
      vertex -33.95 34.8 70
      vertex -22.1136 34 70
      vertex -22.1136 34.8 70
    endloop
  endfacet
  facet normal 0 0 1
    outer loop
      vertex -22.1136 34 70
      vertex -33.95 34.8 70
      vertex -33.95 34 70
    endloop
  endfacet
  facet normal -0 0 1
    outer loop
      vertex -33.95 17.6 70
      vertex -22.1136 16.8 70
      vertex -22.1136 17.6 70
    endloop
  endfacet
  facet normal 0 0 1
    outer loop
      vertex -22.1136 16.8 70
      vertex -33.95 17.6 70
      vertex -33.95 16.8 70
    endloop
  endfacet
  facet normal -0 0 1
    outer loop
      vertex -33.95 0.4 70
      vertex -22.1136 -0.4 70
      vertex -22.1136 0.4 70
    endloop
  endfacet
  facet normal 0 0 1
    outer loop
      vertex -22.1136 -0.4 70
      vertex -33.95 0.4 70
      vertex -33.95 -0.4 70
    endloop
  endfacet
  facet normal -1 0 0
    outer loop
      vertex -34.75 52 0
      vertex -34.75 51.2 26.9231
      vertex -34.75 52 26.9231
    endloop
  endfacet
  facet normal -1 0 0
    outer loop
      vertex -34.75 0.399986 26.9231
      vertex -34.75 51.2 26.9231
      vertex -34.75 52 0
    endloop
  endfacet
  facet normal -1 0 0
    outer loop
      vertex -34.75 47 35.5833
      vertex -34.75 4.6 35.5833
      vertex -34.75 47 45.1859
    endloop
  endfacet
  facet normal -1 0 0
    outer loop
      vertex -34.75 51.2 26.9231
      vertex -34.75 0.399986 26.9231
      vertex -34.75 47 35.5833
    endloop
  endfacet
  facet normal -1 -0 0
    outer loop
      vertex -34.75 47 35.5833
      vertex -34.75 0.399986 26.9231
      vertex -34.75 4.6 35.5833
    endloop
  endfacet
  facet normal -1 0 0
    outer loop
      vertex -34.75 -0.400001 0
      vertex -34.75 0.399986 26.9231
      vertex -34.75 52 0
    endloop
  endfacet
  facet normal -1 -0 0
    outer loop
      vertex -34.75 0.399986 26.9231
      vertex -34.75 -0.400001 0
      vertex -34.75 -0.400001 26.9231
    endloop
  endfacet
  facet normal -1 0 0
    outer loop
      vertex -34.75 51.2 53.8461
      vertex -34.75 52 70
      vertex -34.75 52 53.8461
    endloop
  endfacet
  facet normal -1 0 0
    outer loop
      vertex -34.75 0.399986 53.8461
      vertex -34.75 51.2 53.8461
      vertex -34.75 47 45.1859
    endloop
  endfacet
  facet normal -1 0 0
    outer loop
      vertex -34.75 4.6 45.1859
      vertex -34.75 47 45.1859
      vertex -34.75 4.6 35.5833
    endloop
  endfacet
  facet normal -1 0 0
    outer loop
      vertex -34.75 0.399986 53.8461
      vertex -34.75 47 45.1859
      vertex -34.75 4.6 45.1859
    endloop
  endfacet
  facet normal -1 0 0
    outer loop
      vertex -34.75 51.2 53.8461
      vertex -34.75 0.399986 53.8461
      vertex -34.75 52 70
    endloop
  endfacet
  facet normal -1 0 0
    outer loop
      vertex -34.75 -0.400001 70
      vertex -34.75 0.399986 53.8461
      vertex -34.75 -0.400001 53.8461
    endloop
  endfacet
  facet normal -1 0 0
    outer loop
      vertex -34.75 0.399986 53.8461
      vertex -34.75 -0.400001 70
      vertex -34.75 52 70
    endloop
  endfacet
  facet normal 0 0 -1
    outer loop
      vertex -33.95 -0.400001 0
      vertex -34.75 -0.400001 0
      vertex -33.95 -0.4 0
    endloop
  endfacet
  facet normal 0 0 -1
    outer loop
      vertex 33.95 -0.4 0
      vertex 34.75 -0.400001 0
      vertex 33.95 -0.400001 0
    endloop
  endfacet
  facet normal 0 0 -1
    outer loop
      vertex 34.75 -0.400001 0
      vertex 33.95 -0.4 0
      vertex 34.75 52 0
    endloop
  endfacet
  facet normal 0 0 -1
    outer loop
      vertex -33.95 -0.4 0
      vertex 34.75 52 0
      vertex 33.95 -0.4 0
    endloop
  endfacet
  facet normal 0 0 -1
    outer loop
      vertex -34.75 52 0
      vertex -33.95 -0.4 0
      vertex -34.75 -0.400001 0
    endloop
  endfacet
  facet normal 0 0 -1
    outer loop
      vertex -33.95 -0.4 0
      vertex -34.75 52 0
      vertex 34.75 52 0
    endloop
  endfacet
  facet normal 1 0 0
    outer loop
      vertex 34.75 52 70
      vertex 34.75 51.2 53.8461
      vertex 34.75 52 53.8461
    endloop
  endfacet
  facet normal 1 0 0
    outer loop
      vertex 34.75 0.399986 53.8461
      vertex 34.75 51.2 53.8461
      vertex 34.75 52 70
    endloop
  endfacet
  facet normal 1 0 0
    outer loop
      vertex 34.75 47 45.1859
      vertex 34.75 4.6 45.1859
      vertex 34.75 47 35.5833
    endloop
  endfacet
  facet normal 1 0 0
    outer loop
      vertex 34.75 51.2 53.8461
      vertex 34.75 0.399986 53.8461
      vertex 34.75 47 45.1859
    endloop
  endfacet
  facet normal 1 0 0
    outer loop
      vertex 34.75 47 45.1859
      vertex 34.75 0.399986 53.8461
      vertex 34.75 4.6 45.1859
    endloop
  endfacet
  facet normal 1 -0 0
    outer loop
      vertex 34.75 -0.400001 70
      vertex 34.75 0.399986 53.8461
      vertex 34.75 52 70
    endloop
  endfacet
  facet normal 1 0 0
    outer loop
      vertex 34.75 0.399986 53.8461
      vertex 34.75 -0.400001 70
      vertex 34.75 -0.400001 53.8461
    endloop
  endfacet
  facet normal 1 -0 0
    outer loop
      vertex 34.75 51.2 26.9231
      vertex 34.75 52 0
      vertex 34.75 52 26.9231
    endloop
  endfacet
  facet normal 1 0 0
    outer loop
      vertex 34.75 0.399986 26.9231
      vertex 34.75 51.2 26.9231
      vertex 34.75 47 35.5833
    endloop
  endfacet
  facet normal 1 0 0
    outer loop
      vertex 34.75 4.6 35.5833
      vertex 34.75 47 35.5833
      vertex 34.75 4.6 45.1859
    endloop
  endfacet
  facet normal 1 0 0
    outer loop
      vertex 34.75 0.399986 26.9231
      vertex 34.75 47 35.5833
      vertex 34.75 4.6 35.5833
    endloop
  endfacet
  facet normal 1 0 0
    outer loop
      vertex 34.75 51.2 26.9231
      vertex 34.75 0.399986 26.9231
      vertex 34.75 52 0
    endloop
  endfacet
  facet normal 1 0 0
    outer loop
      vertex 34.75 -0.400001 0
      vertex 34.75 0.399986 26.9231
      vertex 34.75 -0.400001 26.9231
    endloop
  endfacet
  facet normal 1 0 0
    outer loop
      vertex 34.75 0.399986 26.9231
      vertex 34.75 -0.400001 0
      vertex 34.75 52 0
    endloop
  endfacet
  facet normal -0 0 1
    outer loop
      vertex 22.1136 0.4 70
      vertex 33.95 -0.4 70
      vertex 33.95 0.4 70
    endloop
  endfacet
  facet normal 0 0 1
    outer loop
      vertex 33.95 -0.4 70
      vertex 22.1136 0.4 70
      vertex 22.1136 -0.4 70
    endloop
  endfacet
  facet normal -0 0 1
    outer loop
      vertex 22.1136 17.6 70
      vertex 33.95 16.8 70
      vertex 33.95 17.6 70
    endloop
  endfacet
  facet normal 0 0 1
    outer loop
      vertex 33.95 16.8 70
      vertex 22.1136 17.6 70
      vertex 22.1136 16.8 70
    endloop
  endfacet
  facet normal -0 0 1
    outer loop
      vertex 22.1136 34.8 70
      vertex 33.95 34 70
      vertex 33.95 34.8 70
    endloop
  endfacet
  facet normal 0 0 1
    outer loop
      vertex 33.95 34 70
      vertex 22.1136 34.8 70
      vertex 22.1136 34 70
    endloop
  endfacet
  facet normal 0 0 1
    outer loop
      vertex 33.95 34.8 70
      vertex 34.75 52 70
      vertex 33.95 51.2 70
    endloop
  endfacet
  facet normal -0 0 1
    outer loop
      vertex 22.1136 52 70
      vertex 33.95 51.2 70
      vertex 34.75 52 70
    endloop
  endfacet
  facet normal 0 0 1
    outer loop
      vertex 33.95 51.2 70
      vertex 22.1136 52 70
      vertex 22.1136 51.2 70
    endloop
  endfacet
  facet normal 0 0 1
    outer loop
      vertex 33.95 34 70
      vertex 34.75 52 70
      vertex 33.95 34.8 70
    endloop
  endfacet
  facet normal 0 0 1
    outer loop
      vertex 34.75 52 70
      vertex 33.95 34 70
      vertex 34.75 -0.400001 70
    endloop
  endfacet
  facet normal -0 0 1
    outer loop
      vertex 33.95 17.6 70
      vertex 34.75 -0.400001 70
      vertex 33.95 34 70
    endloop
  endfacet
  facet normal -0 0 1
    outer loop
      vertex 33.95 16.8 70
      vertex 34.75 -0.400001 70
      vertex 33.95 17.6 70
    endloop
  endfacet
  facet normal -0 0 1
    outer loop
      vertex 33.95 0.4 70
      vertex 34.75 -0.400001 70
      vertex 33.95 16.8 70
    endloop
  endfacet
  facet normal -0 0 1
    outer loop
      vertex 33.95 -0.4 70
      vertex 34.75 -0.400001 70
      vertex 33.95 0.4 70
    endloop
  endfacet
  facet normal 0 0 1
    outer loop
      vertex 34.75 -0.400001 70
      vertex 33.95 -0.4 70
      vertex 33.95 -0.400001 70
    endloop
  endfacet
  facet normal 0.980785 -0 0.195091
    outer loop
      vertex 21.733 16.8 71.9134
      vertex 22.1136 17.6 70
      vertex 21.733 17.6 71.9134
    endloop
  endfacet
  facet normal 0.980785 0 0.195091
    outer loop
      vertex 22.1136 17.6 70
      vertex 21.733 16.8 71.9134
      vertex 22.1136 16.8 70
    endloop
  endfacet
  facet normal 0.831482 -0 0.555552
    outer loop
      vertex 20.6492 16.8 73.5355
      vertex 21.733 17.6 71.9134
      vertex 20.6492 17.6 73.5355
    endloop
  endfacet
  facet normal 0.831482 0 0.555552
    outer loop
      vertex 21.733 17.6 71.9134
      vertex 20.6492 16.8 73.5355
      vertex 21.733 16.8 71.9134
    endloop
  endfacet
  facet normal 0.555563 0 0.831474
    outer loop
      vertex 19.027 17.6 74.6194
      vertex 20.6492 16.8 73.5355
      vertex 20.6492 17.6 73.5355
    endloop
  endfacet
  facet normal 0.555563 0 0.831474
    outer loop
      vertex 20.6492 16.8 73.5355
      vertex 19.027 17.6 74.6194
      vertex 19.027 16.8 74.6194
    endloop
  endfacet
  facet normal 0.195091 0 0.980785
    outer loop
      vertex 17.1136 17.6 75
      vertex 19.027 16.8 74.6194
      vertex 19.027 17.6 74.6194
    endloop
  endfacet
  facet normal 0.195091 0 0.980785
    outer loop
      vertex 19.027 16.8 74.6194
      vertex 17.1136 17.6 75
      vertex 17.1136 16.8 75
    endloop
  endfacet
  facet normal -0 0 1
    outer loop
      vertex -17.1136 17.6 75
      vertex 17.1136 16.8 75
      vertex 17.1136 17.6 75
    endloop
  endfacet
  facet normal 0 0 1
    outer loop
      vertex 17.1136 16.8 75
      vertex -17.1136 17.6 75
      vertex -17.1136 16.8 75
    endloop
  endfacet
  facet normal -0.195081 0 0.980787
    outer loop
      vertex -19.0271 17.6 74.6194
      vertex -17.1136 16.8 75
      vertex -17.1136 17.6 75
    endloop
  endfacet
  facet normal -0.195081 0 0.980787
    outer loop
      vertex -17.1136 16.8 75
      vertex -19.0271 17.6 74.6194
      vertex -19.0271 16.8 74.6194
    endloop
  endfacet
  facet normal 0 1 -0
    outer loop
      vertex 33.95 34.8 0.799999
      vertex 22.1136 34.8 70
      vertex 33.95 34.8 70
    endloop
  endfacet
  facet normal 0 1 0
    outer loop
      vertex 22.1136 34.8 70
      vertex 33.95 34.8 0.799999
      vertex -22.1136 34.8 70
    endloop
  endfacet
  facet normal 0 1 0
    outer loop
      vertex -33.95 34.8 0.799999
      vertex -22.1136 34.8 70
      vertex 33.95 34.8 0.799999
    endloop
  endfacet
  facet normal 0 1 0
    outer loop
      vertex -22.1136 34.8 70
      vertex -33.95 34.8 0.799999
      vertex -33.95 34.8 70
    endloop
  endfacet
  facet normal 0 1 0
    outer loop
      vertex 22.1136 34.8 70
      vertex 17.1136 34.8 75
      vertex 19.027 34.8 74.6194
    endloop
  endfacet
  facet normal 0 1 0
    outer loop
      vertex 17.1136 34.8 75
      vertex 22.1136 34.8 70
      vertex -17.1136 34.8 75
    endloop
  endfacet
  facet normal 0 1 0
    outer loop
      vertex 22.1136 34.8 70
      vertex 19.027 34.8 74.6194
      vertex 20.6492 34.8 73.5355
    endloop
  endfacet
  facet normal 0 1 0
    outer loop
      vertex -22.1136 34.8 70
      vertex -17.1136 34.8 75
      vertex 22.1136 34.8 70
    endloop
  endfacet
  facet normal 0 1 0
    outer loop
      vertex 22.1136 34.8 70
      vertex 20.6492 34.8 73.5355
      vertex 21.733 34.8 71.9134
    endloop
  endfacet
  facet normal 0 1 0
    outer loop
      vertex -17.1136 34.8 75
      vertex -22.1136 34.8 70
      vertex -19.0271 34.8 74.6194
    endloop
  endfacet
  facet normal 0 1 0
    outer loop
      vertex -19.0271 34.8 74.6194
      vertex -22.1136 34.8 70
      vertex -20.6492 34.8 73.5355
    endloop
  endfacet
  facet normal 0 1 0
    outer loop
      vertex -20.6492 34.8 73.5355
      vertex -22.1136 34.8 70
      vertex -21.733 34.8 71.9134
    endloop
  endfacet
  facet normal 0 -1 0
    outer loop
      vertex -33.95 34 0.799999
      vertex -22.1136 34 70
      vertex -33.95 34 70
    endloop
  endfacet
  facet normal 0 -1 -0
    outer loop
      vertex -22.1136 34 70
      vertex -33.95 34 0.799999
      vertex 22.1136 34 70
    endloop
  endfacet
  facet normal 0 -1 0
    outer loop
      vertex 33.95 34 0.799999
      vertex 22.1136 34 70
      vertex -33.95 34 0.799999
    endloop
  endfacet
  facet normal 0 -1 0
    outer loop
      vertex 22.1136 34 70
      vertex 33.95 34 0.799999
      vertex 33.95 34 70
    endloop
  endfacet
  facet normal 0 -1 0
    outer loop
      vertex -22.1136 34 70
      vertex -17.1136 34 75
      vertex -19.0271 34 74.6194
    endloop
  endfacet
  facet normal 0 -1 -0
    outer loop
      vertex -17.1136 34 75
      vertex -22.1136 34 70
      vertex 17.1136 34 75
    endloop
  endfacet
  facet normal 0 -1 0
    outer loop
      vertex -22.1136 34 70
      vertex -19.0271 34 74.6194
      vertex -20.6492 34 73.5355
    endloop
  endfacet
  facet normal 0 -1 0
    outer loop
      vertex 22.1136 34 70
      vertex 17.1136 34 75
      vertex -22.1136 34 70
    endloop
  endfacet
  facet normal 0 -1 0
    outer loop
      vertex -22.1136 34 70
      vertex -20.6492 34 73.5355
      vertex -21.733 34 71.9134
    endloop
  endfacet
  facet normal 0 -1 0
    outer loop
      vertex 17.1136 34 75
      vertex 22.1136 34 70
      vertex 19.027 34 74.6194
    endloop
  endfacet
  facet normal 0 -1 0
    outer loop
      vertex 19.027 34 74.6194
      vertex 22.1136 34 70
      vertex 20.6492 34 73.5355
    endloop
  endfacet
  facet normal 0 -1 0
    outer loop
      vertex 20.6492 34 73.5355
      vertex 22.1136 34 70
      vertex 21.733 34 71.9134
    endloop
  endfacet
  facet normal -0.555587 0 0.831458
    outer loop
      vertex -20.6492 34.8 73.5355
      vertex -19.0271 34 74.6194
      vertex -19.0271 34.8 74.6194
    endloop
  endfacet
  facet normal -0.555587 0 0.831458
    outer loop
      vertex -19.0271 34 74.6194
      vertex -20.6492 34.8 73.5355
      vertex -20.6492 34 73.5355
    endloop
  endfacet
  facet normal -0.831482 0 0.555552
    outer loop
      vertex -21.733 34 71.9134
      vertex -20.6492 34.8 73.5355
      vertex -21.733 34.8 71.9134
    endloop
  endfacet
  facet normal -0.831482 0 0.555552
    outer loop
      vertex -20.6492 34.8 73.5355
      vertex -21.733 34 71.9134
      vertex -20.6492 34 73.5355
    endloop
  endfacet
  facet normal -0.980785 0 0.195091
    outer loop
      vertex -22.1136 34 70
      vertex -21.733 34.8 71.9134
      vertex -22.1136 34.8 70
    endloop
  endfacet
  facet normal -0.980785 0 0.195091
    outer loop
      vertex -21.733 34.8 71.9134
      vertex -22.1136 34 70
      vertex -21.733 34 71.9134
    endloop
  endfacet
  facet normal 0.980785 -0 0.195091
    outer loop
      vertex 21.733 34 71.9134
      vertex 22.1136 34.8 70
      vertex 21.733 34.8 71.9134
    endloop
  endfacet
  facet normal 0.980785 0 0.195091
    outer loop
      vertex 22.1136 34.8 70
      vertex 21.733 34 71.9134
      vertex 22.1136 34 70
    endloop
  endfacet
  facet normal 0.831482 -0 0.555552
    outer loop
      vertex 20.6492 34 73.5355
      vertex 21.733 34.8 71.9134
      vertex 20.6492 34.8 73.5355
    endloop
  endfacet
  facet normal 0.831482 0 0.555552
    outer loop
      vertex 21.733 34.8 71.9134
      vertex 20.6492 34 73.5355
      vertex 21.733 34 71.9134
    endloop
  endfacet
  facet normal 0.555563 0 0.831474
    outer loop
      vertex 19.027 34.8 74.6194
      vertex 20.6492 34 73.5355
      vertex 20.6492 34.8 73.5355
    endloop
  endfacet
  facet normal 0.555563 0 0.831474
    outer loop
      vertex 20.6492 34 73.5355
      vertex 19.027 34.8 74.6194
      vertex 19.027 34 74.6194
    endloop
  endfacet
  facet normal 0.195091 0 0.980785
    outer loop
      vertex 17.1136 34.8 75
      vertex 19.027 34 74.6194
      vertex 19.027 34.8 74.6194
    endloop
  endfacet
  facet normal 0.195091 0 0.980785
    outer loop
      vertex 19.027 34 74.6194
      vertex 17.1136 34.8 75
      vertex 17.1136 34 75
    endloop
  endfacet
  facet normal -0 0 1
    outer loop
      vertex -17.1136 34.8 75
      vertex 17.1136 34 75
      vertex 17.1136 34.8 75
    endloop
  endfacet
  facet normal 0 0 1
    outer loop
      vertex 17.1136 34 75
      vertex -17.1136 34.8 75
      vertex -17.1136 34 75
    endloop
  endfacet
  facet normal -0.195081 0 0.980787
    outer loop
      vertex -19.0271 34.8 74.6194
      vertex -17.1136 34 75
      vertex -17.1136 34.8 75
    endloop
  endfacet
  facet normal -0.195081 0 0.980787
    outer loop
      vertex -17.1136 34 75
      vertex -19.0271 34.8 74.6194
      vertex -19.0271 34 74.6194
    endloop
  endfacet
  facet normal 0 1 0
    outer loop
      vertex 33.95 0.4 70
      vertex 21.733 0.4 68.0866
      vertex 22.1136 0.4 70
    endloop
  endfacet
  facet normal 0 1 0
    outer loop
      vertex 33.95 0.4 70
      vertex 20.6492 0.4 66.4645
      vertex 21.733 0.4 68.0866
    endloop
  endfacet
  facet normal 0 1 -0
    outer loop
      vertex 33.95 0.4 53.8461
      vertex 20.6492 0.4 66.4645
      vertex 33.95 0.4 70
    endloop
  endfacet
  facet normal 0 1 -0
    outer loop
      vertex 29.75 0.4 45.1859
      vertex 19.027 0.4 65.3806
      vertex 33.95 0.4 53.8461
    endloop
  endfacet
  facet normal 0 1 0
    outer loop
      vertex 20.6492 0.4 66.4645
      vertex 33.95 0.4 53.8461
      vertex 19.027 0.4 65.3806
    endloop
  endfacet
  facet normal 0 1 0
    outer loop
      vertex -21.733 0.4 68.0866
      vertex -33.95 0.4 70
      vertex -22.1136 0.4 70
    endloop
  endfacet
  facet normal 0 1 0
    outer loop
      vertex -20.6492 0.4 66.4645
      vertex -33.95 0.4 70
      vertex -21.733 0.4 68.0866
    endloop
  endfacet
  facet normal 0 1 0
    outer loop
      vertex -33.95 0.4 53.8461
      vertex -20.6492 0.4 66.4645
      vertex -19.0271 0.4 65.3806
    endloop
  endfacet
  facet normal 0 1 0
    outer loop
      vertex 19.027 0.4 65.3806
      vertex 29.75 0.4 45.1859
      vertex 17.1136 0.4 65
    endloop
  endfacet
  facet normal 0 1 0
    outer loop
      vertex 17.1136 0.4 65
      vertex 29.75 0.4 45.1859
      vertex -17.1136 0.4 65
    endloop
  endfacet
  facet normal 0 1 0
    outer loop
      vertex -20.6492 0.4 66.4645
      vertex -33.95 0.4 53.8461
      vertex -33.95 0.4 70
    endloop
  endfacet
  facet normal 0 1 0
    outer loop
      vertex -29.75 0.4 45.1859
      vertex -17.1136 0.4 65
      vertex 29.75 0.4 45.1859
    endloop
  endfacet
  facet normal 0 1 0
    outer loop
      vertex -17.1136 0.4 65
      vertex -29.75 0.4 45.1859
      vertex -19.0271 0.4 65.3806
    endloop
  endfacet
  facet normal 0 1 0
    outer loop
      vertex -19.0271 0.4 65.3806
      vertex -29.75 0.4 45.1859
      vertex -33.95 0.4 53.8461
    endloop
  endfacet
  facet normal 0 1 -0
    outer loop
      vertex 29.75 0.4 35.5833
      vertex -29.75 0.4 45.1859
      vertex 29.75 0.4 45.1859
    endloop
  endfacet
  facet normal 0 1 0
    outer loop
      vertex 29.75 0.4 35.5833
      vertex -29.75 0.4 35.5833
      vertex -29.75 0.4 45.1859
    endloop
  endfacet
  facet normal 0 1 0
    outer loop
      vertex 29.75 0.4 35.5833
      vertex -33.95 0.4 26.9231
      vertex -29.75 0.4 35.5833
    endloop
  endfacet
  facet normal 0 1 0
    outer loop
      vertex 33.95 0.4 26.9231
      vertex -33.95 0.4 26.9231
      vertex 29.75 0.4 35.5833
    endloop
  endfacet
  facet normal 0 1 -0
    outer loop
      vertex 33.95 0.4 0.799999
      vertex -33.95 0.4 26.9231
      vertex 33.95 0.4 26.9231
    endloop
  endfacet
  facet normal 0 1 0
    outer loop
      vertex -33.95 0.4 26.9231
      vertex 33.95 0.4 0.799999
      vertex -33.95 0.4 0.799999
    endloop
  endfacet
  facet normal 0 -1 0
    outer loop
      vertex -33.95 -0.4 70
      vertex -21.733 -0.4 68.0866
      vertex -22.1136 -0.4 70
    endloop
  endfacet
  facet normal 0 -1 0
    outer loop
      vertex -33.95 -0.4 70
      vertex -20.6492 -0.4 66.4645
      vertex -21.733 -0.4 68.0866
    endloop
  endfacet
  facet normal 0 -1 0
    outer loop
      vertex -33.95 -0.4 53.8461
      vertex -20.6492 -0.4 66.4645
      vertex -33.95 -0.4 70
    endloop
  endfacet
  facet normal 0 -1 -0
    outer loop
      vertex -19.0271 -0.4 65.3806
      vertex -29.75 -0.4 45.1859
      vertex -17.1136 -0.4 65
    endloop
  endfacet
  facet normal 0 -1 0
    outer loop
      vertex -29.75 -0.4 45.1859
      vertex -19.0271 -0.4 65.3806
      vertex -33.95 -0.4 53.8461
    endloop
  endfacet
  facet normal 0 -1 -0
    outer loop
      vertex -20.6492 -0.4 66.4645
      vertex -33.95 -0.4 53.8461
      vertex -19.0271 -0.4 65.3806
    endloop
  endfacet
  facet normal 0 -1 0
    outer loop
      vertex 21.733 -0.4 68.0866
      vertex 33.95 -0.4 70
      vertex 22.1136 -0.4 70
    endloop
  endfacet
  facet normal 0 -1 0
    outer loop
      vertex 20.6492 -0.4 66.4645
      vertex 33.95 -0.4 70
      vertex 21.733 -0.4 68.0866
    endloop
  endfacet
  facet normal 0 -1 0
    outer loop
      vertex 33.95 -0.4 53.8461
      vertex 20.6492 -0.4 66.4645
      vertex 19.027 -0.4 65.3806
    endloop
  endfacet
  facet normal 0 -1 -0
    outer loop
      vertex -17.1136 -0.4 65
      vertex -29.75 -0.4 45.1859
      vertex 17.1136 -0.4 65
    endloop
  endfacet
  facet normal 0 -1 0
    outer loop
      vertex 29.75 -0.4 45.1859
      vertex 17.1136 -0.4 65
      vertex -29.75 -0.4 45.1859
    endloop
  endfacet
  facet normal 0 -1 0
    outer loop
      vertex 20.6492 -0.4 66.4645
      vertex 33.95 -0.4 53.8461
      vertex 33.95 -0.4 70
    endloop
  endfacet
  facet normal 0 -1 0
    outer loop
      vertex 17.1136 -0.4 65
      vertex 29.75 -0.4 45.1859
      vertex 19.027 -0.4 65.3806
    endloop
  endfacet
  facet normal 0 -1 0
    outer loop
      vertex 19.027 -0.4 65.3806
      vertex 29.75 -0.4 45.1859
      vertex 33.95 -0.4 53.8461
    endloop
  endfacet
  facet normal 0 -1 0
    outer loop
      vertex -29.75 -0.4 35.5833
      vertex 29.75 -0.4 45.1859
      vertex -29.75 -0.4 45.1859
    endloop
  endfacet
  facet normal 0 -1 0
    outer loop
      vertex -29.75 -0.4 35.5833
      vertex 29.75 -0.4 35.5833
      vertex 29.75 -0.4 45.1859
    endloop
  endfacet
  facet normal 0 -1 -0
    outer loop
      vertex -29.75 -0.4 35.5833
      vertex -33.95 -0.4 26.9231
      vertex 29.75 -0.4 35.5833
    endloop
  endfacet
  facet normal 0 -1 0
    outer loop
      vertex -33.95 -0.4 26.9231
      vertex 33.95 -0.4 26.9231
      vertex 29.75 -0.4 35.5833
    endloop
  endfacet
  facet normal 0 -1 0
    outer loop
      vertex -33.95 -0.4 0
      vertex 33.95 -0.4 26.9231
      vertex -33.95 -0.4 26.9231
    endloop
  endfacet
  facet normal 0 -1 0
    outer loop
      vertex 33.95 -0.4 0
      vertex 33.95 -0.4 26.9231
      vertex -33.95 -0.4 0
    endloop
  endfacet
  facet normal 0.555587 0 0.831458
    outer loop
      vertex -20.6492 0.4 66.4645
      vertex -19.0271 -0.4 65.3806
      vertex -19.0271 0.4 65.3806
    endloop
  endfacet
  facet normal 0.555587 0 0.831458
    outer loop
      vertex -19.0271 -0.4 65.3806
      vertex -20.6492 0.4 66.4645
      vertex -20.6492 -0.4 66.4645
    endloop
  endfacet
  facet normal 0.831482 -0 0.555552
    outer loop
      vertex -21.733 -0.4 68.0866
      vertex -20.6492 0.4 66.4645
      vertex -21.733 0.4 68.0866
    endloop
  endfacet
  facet normal 0.831482 0 0.555552
    outer loop
      vertex -20.6492 0.4 66.4645
      vertex -21.733 -0.4 68.0866
      vertex -20.6492 -0.4 66.4645
    endloop
  endfacet
  facet normal 0.980785 -0 0.195091
    outer loop
      vertex -22.1136 -0.4 70
      vertex -21.733 0.4 68.0866
      vertex -22.1136 0.4 70
    endloop
  endfacet
  facet normal 0.980785 0 0.195091
    outer loop
      vertex -21.733 0.4 68.0866
      vertex -22.1136 -0.4 70
      vertex -21.733 -0.4 68.0866
    endloop
  endfacet
  facet normal 0 0 -1
    outer loop
      vertex -34.75 -0.400001 53.8461
      vertex -33.95 -0.4 53.8461
      vertex -33.95 -0.400001 53.8461
    endloop
  endfacet
  facet normal 0 0 -1
    outer loop
      vertex -34.75 -0.400001 53.8461
      vertex -33.95 0.399986 53.8461
      vertex -33.95 -0.4 53.8461
    endloop
  endfacet
  facet normal -0 0 -1
    outer loop
      vertex -33.95 0.399986 53.8461
      vertex -34.75 -0.400001 53.8461
      vertex -34.75 0.399986 53.8461
    endloop
  endfacet
  facet normal -0.899769 0 -0.436367
    outer loop
      vertex -29.75 0.4 45.1859
      vertex -33.95 0.399999 53.8461
      vertex -33.95 0.4 53.8461
    endloop
  endfacet
  facet normal -0.899769 0 -0.436367
    outer loop
      vertex -29.75 -0.4 45.1859
      vertex -33.95 0.399999 53.8461
      vertex -29.75 0.4 45.1859
    endloop
  endfacet
  facet normal -0.899769 0 -0.436367
    outer loop
      vertex -33.95 -0.4 53.8461
      vertex -33.95 0.399999 53.8461
      vertex -29.75 -0.4 45.1859
    endloop
  endfacet
  facet normal 0 0 0
    outer loop
      vertex -33.95 0.399999 53.8461
      vertex -33.95 -0.4 53.8461
      vertex -33.95 0.399986 53.8461
    endloop
  endfacet
  facet normal -1 0 0
    outer loop
      vertex -29.75 -0.4 35.5833
      vertex -29.75 0.4 45.1859
      vertex -29.75 0.4 35.5833
    endloop
  endfacet
  facet normal -1 -0 0
    outer loop
      vertex -29.75 0.4 45.1859
      vertex -29.75 -0.4 35.5833
      vertex -29.75 -0.4 45.1859
    endloop
  endfacet
  facet normal -0.899769 0 0.436367
    outer loop
      vertex -33.95 0.399999 26.9231
      vertex -29.75 0.4 35.5833
      vertex -33.95 0.4 26.9231
    endloop
  endfacet
  facet normal 0 0 0
    outer loop
      vertex -33.95 -0.4 26.9231
      vertex -33.95 0.399999 26.9231
      vertex -33.95 0.399986 26.9231
    endloop
  endfacet
  facet normal -0.899769 0 0.436367
    outer loop
      vertex -33.95 0.399999 26.9231
      vertex -33.95 -0.4 26.9231
      vertex -29.75 0.4 35.5833
    endloop
  endfacet
  facet normal -0.899769 0 0.436367
    outer loop
      vertex -29.75 0.4 35.5833
      vertex -33.95 -0.4 26.9231
      vertex -29.75 -0.4 35.5833
    endloop
  endfacet
  facet normal 0 0 1
    outer loop
      vertex -33.95 0.399986 26.9231
      vertex -34.75 0.399986 26.9231
      vertex -33.95 -0.4 26.9231
    endloop
  endfacet
  facet normal 0 0 1
    outer loop
      vertex -33.95 -0.4 26.9231
      vertex -34.75 -0.400001 26.9231
      vertex -33.95 -0.400001 26.9231
    endloop
  endfacet
  facet normal 0 0 1
    outer loop
      vertex -34.75 -0.400001 26.9231
      vertex -33.95 -0.4 26.9231
      vertex -34.75 0.399986 26.9231
    endloop
  endfacet
  facet normal -0 0 1
    outer loop
      vertex 33.95 0.399986 26.9231
      vertex 34.75 -0.400001 26.9231
      vertex 34.75 0.399986 26.9231
    endloop
  endfacet
  facet normal -0 0 1
    outer loop
      vertex 33.95 -0.4 26.9231
      vertex 34.75 -0.400001 26.9231
      vertex 33.95 0.399986 26.9231
    endloop
  endfacet
  facet normal 0 0 1
    outer loop
      vertex 34.75 -0.400001 26.9231
      vertex 33.95 -0.4 26.9231
      vertex 33.95 -0.400001 26.9231
    endloop
  endfacet
  facet normal 0 0 0
    outer loop
      vertex 33.95 -0.4 26.9231
      vertex 33.95 0.399986 26.9231
      vertex 33.95 0.4 26.9231
    endloop
  endfacet
  facet normal 0.899769 -0 0.436367
    outer loop
      vertex 29.75 -0.4 35.5833
      vertex 33.95 0.4 26.9231
      vertex 29.75 0.4 35.5833
    endloop
  endfacet
  facet normal 0.899769 0 0.436367
    outer loop
      vertex 33.95 0.4 26.9231
      vertex 29.75 -0.4 35.5833
      vertex 33.95 -0.4 26.9231
    endloop
  endfacet
  facet normal 1 -0 0
    outer loop
      vertex 29.75 -0.4 45.1859
      vertex 29.75 0.4 35.5833
      vertex 29.75 0.4 45.1859
    endloop
  endfacet
  facet normal 1 0 0
    outer loop
      vertex 29.75 0.4 35.5833
      vertex 29.75 -0.4 45.1859
      vertex 29.75 -0.4 35.5833
    endloop
  endfacet
  facet normal 0.899769 0 -0.436367
    outer loop
      vertex 33.95 -0.4 53.8461
      vertex 29.75 0.4 45.1859
      vertex 33.95 0.4 53.8461
    endloop
  endfacet
  facet normal 0.899769 0 -0.436367
    outer loop
      vertex 29.75 0.4 45.1859
      vertex 33.95 -0.4 53.8461
      vertex 29.75 -0.4 45.1859
    endloop
  endfacet
  facet normal 0 0 -1
    outer loop
      vertex 33.95 -0.4 53.8461
      vertex 34.75 -0.400001 53.8461
      vertex 33.95 -0.400001 53.8461
    endloop
  endfacet
  facet normal 0 0 -1
    outer loop
      vertex 34.75 -0.400001 53.8461
      vertex 33.95 -0.4 53.8461
      vertex 34.75 0.399986 53.8461
    endloop
  endfacet
  facet normal 0 0 -1
    outer loop
      vertex 33.95 -0.4 53.8461
      vertex 33.95 0.399986 53.8461
      vertex 34.75 0.399986 53.8461
    endloop
  endfacet
  facet normal 0 0 0
    outer loop
      vertex 33.95 0.4 53.8461
      vertex 33.95 0.399986 53.8461
      vertex 33.95 -0.4 53.8461
    endloop
  endfacet
  facet normal -0.980785 0 0.195091
    outer loop
      vertex 21.733 -0.4 68.0866
      vertex 22.1136 0.4 70
      vertex 21.733 0.4 68.0866
    endloop
  endfacet
  facet normal -0.980785 0 0.195091
    outer loop
      vertex 22.1136 0.4 70
      vertex 21.733 -0.4 68.0866
      vertex 22.1136 -0.4 70
    endloop
  endfacet
  facet normal -0.831482 0 0.555552
    outer loop
      vertex 20.6492 -0.4 66.4645
      vertex 21.733 0.4 68.0866
      vertex 20.6492 0.4 66.4645
    endloop
  endfacet
  facet normal -0.831482 0 0.555552
    outer loop
      vertex 21.733 0.4 68.0866
      vertex 20.6492 -0.4 66.4645
      vertex 21.733 -0.4 68.0866
    endloop
  endfacet
  facet normal -0.555563 0 0.831474
    outer loop
      vertex 19.027 0.4 65.3806
      vertex 20.6492 -0.4 66.4645
      vertex 20.6492 0.4 66.4645
    endloop
  endfacet
  facet normal -0.555563 0 0.831474
    outer loop
      vertex 20.6492 -0.4 66.4645
      vertex 19.027 0.4 65.3806
      vertex 19.027 -0.4 65.3806
    endloop
  endfacet
  facet normal -0.195091 0 0.980785
    outer loop
      vertex 17.1136 0.4 65
      vertex 19.027 -0.4 65.3806
      vertex 19.027 0.4 65.3806
    endloop
  endfacet
  facet normal -0.195091 0 0.980785
    outer loop
      vertex 19.027 -0.4 65.3806
      vertex 17.1136 0.4 65
      vertex 17.1136 -0.4 65
    endloop
  endfacet
  facet normal -0 0 1
    outer loop
      vertex -17.1136 0.4 65
      vertex 17.1136 -0.4 65
      vertex 17.1136 0.4 65
    endloop
  endfacet
  facet normal 0 0 1
    outer loop
      vertex 17.1136 -0.4 65
      vertex -17.1136 0.4 65
      vertex -17.1136 -0.4 65
    endloop
  endfacet
  facet normal 0.195081 0 0.980787
    outer loop
      vertex -19.0271 0.4 65.3806
      vertex -17.1136 -0.4 65
      vertex -17.1136 0.4 65
    endloop
  endfacet
  facet normal 0.195081 0 0.980787
    outer loop
      vertex -17.1136 -0.4 65
      vertex -19.0271 0.4 65.3806
      vertex -19.0271 -0.4 65.3806
    endloop
  endfacet
  facet normal 0 1 0
    outer loop
      vertex 34.75 52 70
      vertex 21.733 52 68.0866
      vertex 22.1136 52 70
    endloop
  endfacet
  facet normal 0 1 -0
    outer loop
      vertex 33.95 52 53.8461
      vertex 21.733 52 68.0866
      vertex 34.75 52 70
    endloop
  endfacet
  facet normal 0 1 0
    outer loop
      vertex 21.733 52 68.0866
      vertex 33.95 52 53.8461
      vertex 20.6492 52 66.4645
    endloop
  endfacet
  facet normal 0 1 -0
    outer loop
      vertex 29.75 52 45.1859
      vertex 19.027 52 65.3806
      vertex 33.95 52 53.8461
    endloop
  endfacet
  facet normal 0 1 0
    outer loop
      vertex 20.6492 52 66.4645
      vertex 33.95 52 53.8461
      vertex 19.027 52 65.3806
    endloop
  endfacet
  facet normal 0 1 0
    outer loop
      vertex 33.95 52 53.8461
      vertex 34.75 52 70
      vertex 34.75 52 53.8461
    endloop
  endfacet
  facet normal 0 1 0
    outer loop
      vertex -21.733 52 68.0866
      vertex -34.75 52 70
      vertex -22.1136 52 70
    endloop
  endfacet
  facet normal 0 1 0
    outer loop
      vertex -33.95 52 53.8461
      vertex -21.733 52 68.0866
      vertex -20.6492 52 66.4645
    endloop
  endfacet
  facet normal 0 1 0
    outer loop
      vertex -33.95 52 53.8461
      vertex -20.6492 52 66.4645
      vertex -19.0271 52 65.3806
    endloop
  endfacet
  facet normal 0 1 0
    outer loop
      vertex 19.027 52 65.3806
      vertex 29.75 52 45.1859
      vertex 17.1136 52 65
    endloop
  endfacet
  facet normal 0 1 0
    outer loop
      vertex 17.1136 52 65
      vertex 29.75 52 45.1859
      vertex -17.1136 52 65
    endloop
  endfacet
  facet normal 0 1 0
    outer loop
      vertex -29.75 52 45.1859
      vertex -17.1136 52 65
      vertex 29.75 52 45.1859
    endloop
  endfacet
  facet normal 0 1 0
    outer loop
      vertex -21.733 52 68.0866
      vertex -33.95 52 53.8461
      vertex -34.75 52 70
    endloop
  endfacet
  facet normal 0 1 0
    outer loop
      vertex -34.75 52 70
      vertex -33.95 52 53.8461
      vertex -34.75 52 53.8461
    endloop
  endfacet
  facet normal 0 1 -0
    outer loop
      vertex 34.75 52 0
      vertex 33.95 52 26.9231
      vertex 34.75 52 26.9231
    endloop
  endfacet
  facet normal 0 1 0
    outer loop
      vertex 33.95 52 26.9231
      vertex 34.75 52 0
      vertex -33.95 52 26.9231
    endloop
  endfacet
  facet normal 0 1 0
    outer loop
      vertex -34.75 52 0
      vertex -33.95 52 26.9231
      vertex 34.75 52 0
    endloop
  endfacet
  facet normal 0 1 0
    outer loop
      vertex -33.95 52 26.9231
      vertex -34.75 52 0
      vertex -34.75 52 26.9231
    endloop
  endfacet
  facet normal 0 1 0
    outer loop
      vertex -17.1136 52 65
      vertex -29.75 52 45.1859
      vertex -19.0271 52 65.3806
    endloop
  endfacet
  facet normal 0 1 0
    outer loop
      vertex -19.0271 52 65.3806
      vertex -29.75 52 45.1859
      vertex -33.95 52 53.8461
    endloop
  endfacet
  facet normal 0 1 -0
    outer loop
      vertex 29.75 52 35.5833
      vertex -29.75 52 45.1859
      vertex 29.75 52 45.1859
    endloop
  endfacet
  facet normal 0 1 0
    outer loop
      vertex 29.75 52 35.5833
      vertex -29.75 52 35.5833
      vertex -29.75 52 45.1859
    endloop
  endfacet
  facet normal 0 1 0
    outer loop
      vertex 33.95 52 26.9231
      vertex -29.75 52 35.5833
      vertex 29.75 52 35.5833
    endloop
  endfacet
  facet normal 0 1 0
    outer loop
      vertex -29.75 52 35.5833
      vertex 33.95 52 26.9231
      vertex -33.95 52 26.9231
    endloop
  endfacet
  facet normal 0 -1 0
    outer loop
      vertex -33.95 51.2 70
      vertex -21.733 51.2 68.0866
      vertex -22.1136 51.2 70
    endloop
  endfacet
  facet normal 0 -1 0
    outer loop
      vertex -33.95 51.2 70
      vertex -20.6492 51.2 66.4645
      vertex -21.733 51.2 68.0866
    endloop
  endfacet
  facet normal 0 -1 0
    outer loop
      vertex -33.95 51.2 53.8461
      vertex -20.6492 51.2 66.4645
      vertex -33.95 51.2 70
    endloop
  endfacet
  facet normal 0 -1 -0
    outer loop
      vertex -19.0271 51.2 65.3806
      vertex -29.75 51.2 45.1859
      vertex -17.1136 51.2 65
    endloop
  endfacet
  facet normal 0 -1 0
    outer loop
      vertex -29.75 51.2 45.1859
      vertex -19.0271 51.2 65.3806
      vertex -33.95 51.2 53.8461
    endloop
  endfacet
  facet normal 0 -1 -0
    outer loop
      vertex -20.6492 51.2 66.4645
      vertex -33.95 51.2 53.8461
      vertex -19.0271 51.2 65.3806
    endloop
  endfacet
  facet normal 0 -1 0
    outer loop
      vertex 21.733 51.2 68.0866
      vertex 33.95 51.2 70
      vertex 22.1136 51.2 70
    endloop
  endfacet
  facet normal 0 -1 0
    outer loop
      vertex 20.6492 51.2 66.4645
      vertex 33.95 51.2 70
      vertex 21.733 51.2 68.0866
    endloop
  endfacet
  facet normal 0 -1 0
    outer loop
      vertex 33.95 51.2 53.8461
      vertex 20.6492 51.2 66.4645
      vertex 19.027 51.2 65.3806
    endloop
  endfacet
  facet normal 0 -1 -0
    outer loop
      vertex -17.1136 51.2 65
      vertex -29.75 51.2 45.1859
      vertex 17.1136 51.2 65
    endloop
  endfacet
  facet normal 0 -1 0
    outer loop
      vertex 29.75 51.2 45.1859
      vertex 17.1136 51.2 65
      vertex -29.75 51.2 45.1859
    endloop
  endfacet
  facet normal 0 -1 0
    outer loop
      vertex 20.6492 51.2 66.4645
      vertex 33.95 51.2 53.8461
      vertex 33.95 51.2 70
    endloop
  endfacet
  facet normal 0 -1 0
    outer loop
      vertex 17.1136 51.2 65
      vertex 29.75 51.2 45.1859
      vertex 19.027 51.2 65.3806
    endloop
  endfacet
  facet normal 0 -1 0
    outer loop
      vertex 19.027 51.2 65.3806
      vertex 29.75 51.2 45.1859
      vertex 33.95 51.2 53.8461
    endloop
  endfacet
  facet normal 0 -1 0
    outer loop
      vertex -29.75 51.2 35.5833
      vertex 29.75 51.2 45.1859
      vertex -29.75 51.2 45.1859
    endloop
  endfacet
  facet normal 0 -1 0
    outer loop
      vertex -29.75 51.2 35.5833
      vertex 29.75 51.2 35.5833
      vertex 29.75 51.2 45.1859
    endloop
  endfacet
  facet normal 0 -1 -0
    outer loop
      vertex -29.75 51.2 35.5833
      vertex -33.95 51.2 26.9231
      vertex 29.75 51.2 35.5833
    endloop
  endfacet
  facet normal 0 -1 0
    outer loop
      vertex -33.95 51.2 26.9231
      vertex 33.95 51.2 26.9231
      vertex 29.75 51.2 35.5833
    endloop
  endfacet
  facet normal 0 -1 0
    outer loop
      vertex -33.95 51.2 0.799999
      vertex 33.95 51.2 26.9231
      vertex -33.95 51.2 26.9231
    endloop
  endfacet
  facet normal 0 -1 0
    outer loop
      vertex 33.95 51.2 0.799999
      vertex 33.95 51.2 26.9231
      vertex -33.95 51.2 0.799999
    endloop
  endfacet
  facet normal 0.555587 0 0.831458
    outer loop
      vertex -20.6492 52 66.4645
      vertex -19.0271 51.2 65.3806
      vertex -19.0271 52 65.3806
    endloop
  endfacet
  facet normal 0.555587 0 0.831458
    outer loop
      vertex -19.0271 51.2 65.3806
      vertex -20.6492 52 66.4645
      vertex -20.6492 51.2 66.4645
    endloop
  endfacet
  facet normal 0.831482 -0 0.555552
    outer loop
      vertex -21.733 51.2 68.0866
      vertex -20.6492 52 66.4645
      vertex -21.733 52 68.0866
    endloop
  endfacet
  facet normal 0.831482 0 0.555552
    outer loop
      vertex -20.6492 52 66.4645
      vertex -21.733 51.2 68.0866
      vertex -20.6492 51.2 66.4645
    endloop
  endfacet
  facet normal 0.980785 -0 0.195091
    outer loop
      vertex -22.1136 51.2 70
      vertex -21.733 52 68.0866
      vertex -22.1136 52 70
    endloop
  endfacet
  facet normal 0.980785 0 0.195091
    outer loop
      vertex -21.733 52 68.0866
      vertex -22.1136 51.2 70
      vertex -21.733 51.2 68.0866
    endloop
  endfacet
  facet normal 0 0 -1
    outer loop
      vertex -34.75 51.2 53.8461
      vertex -33.95 52 53.8461
      vertex -33.95 51.2 53.8461
    endloop
  endfacet
  facet normal -0 0 -1
    outer loop
      vertex -33.95 52 53.8461
      vertex -34.75 51.2 53.8461
      vertex -34.75 52 53.8461
    endloop
  endfacet
  facet normal -0.899769 0 -0.436367
    outer loop
      vertex -29.75 51.2 45.1859
      vertex -33.95 52 53.8461
      vertex -29.75 52 45.1859
    endloop
  endfacet
  facet normal -0.899769 -0 -0.436367
    outer loop
      vertex -33.95 52 53.8461
      vertex -29.75 51.2 45.1859
      vertex -33.95 51.2 53.8461
    endloop
  endfacet
  facet normal -1 0 0
    outer loop
      vertex -29.75 51.2 35.5833
      vertex -29.75 52 45.1859
      vertex -29.75 52 35.5833
    endloop
  endfacet
  facet normal -1 -0 0
    outer loop
      vertex -29.75 52 45.1859
      vertex -29.75 51.2 35.5833
      vertex -29.75 51.2 45.1859
    endloop
  endfacet
  facet normal -0.899769 0 0.436367
    outer loop
      vertex -33.95 51.2 26.9231
      vertex -29.75 52 35.5833
      vertex -33.95 52 26.9231
    endloop
  endfacet
  facet normal -0.899769 0 0.436367
    outer loop
      vertex -29.75 52 35.5833
      vertex -33.95 51.2 26.9231
      vertex -29.75 51.2 35.5833
    endloop
  endfacet
  facet normal 0 0 1
    outer loop
      vertex -33.95 52 26.9231
      vertex -34.75 52 26.9231
      vertex -33.95 51.2 26.9231
    endloop
  endfacet
  facet normal 0 0 1
    outer loop
      vertex -34.75 51.2 26.9231
      vertex -33.95 51.2 26.9231
      vertex -34.75 52 26.9231
    endloop
  endfacet
  facet normal 0 0 1
    outer loop
      vertex 34.75 52 26.9231
      vertex 33.95 51.2 26.9231
      vertex 34.75 51.2 26.9231
    endloop
  endfacet
  facet normal -0 0 1
    outer loop
      vertex 33.95 52 26.9231
      vertex 33.95 51.2 26.9231
      vertex 34.75 52 26.9231
    endloop
  endfacet
  facet normal 0.899769 -0 0.436367
    outer loop
      vertex 29.75 51.2 35.5833
      vertex 33.95 52 26.9231
      vertex 29.75 52 35.5833
    endloop
  endfacet
  facet normal 0.899769 0 0.436367
    outer loop
      vertex 33.95 52 26.9231
      vertex 29.75 51.2 35.5833
      vertex 33.95 51.2 26.9231
    endloop
  endfacet
  facet normal 1 -0 0
    outer loop
      vertex 29.75 51.2 45.1859
      vertex 29.75 52 35.5833
      vertex 29.75 52 45.1859
    endloop
  endfacet
  facet normal 1 0 0
    outer loop
      vertex 29.75 52 35.5833
      vertex 29.75 51.2 45.1859
      vertex 29.75 51.2 35.5833
    endloop
  endfacet
  facet normal 0.899769 0 -0.436367
    outer loop
      vertex 33.95 51.2 53.8461
      vertex 29.75 52 45.1859
      vertex 33.95 52 53.8461
    endloop
  endfacet
  facet normal 0.899769 0 -0.436367
    outer loop
      vertex 29.75 52 45.1859
      vertex 33.95 51.2 53.8461
      vertex 29.75 51.2 45.1859
    endloop
  endfacet
  facet normal 0 0 -1
    outer loop
      vertex 34.75 51.2 53.8461
      vertex 33.95 51.2 53.8461
      vertex 34.75 52 53.8461
    endloop
  endfacet
  facet normal 0 0 -1
    outer loop
      vertex 33.95 51.2 53.8461
      vertex 33.95 52 53.8461
      vertex 34.75 52 53.8461
    endloop
  endfacet
  facet normal -0.980785 0 0.195091
    outer loop
      vertex 21.733 51.2 68.0866
      vertex 22.1136 52 70
      vertex 21.733 52 68.0866
    endloop
  endfacet
  facet normal -0.980785 0 0.195091
    outer loop
      vertex 22.1136 52 70
      vertex 21.733 51.2 68.0866
      vertex 22.1136 51.2 70
    endloop
  endfacet
  facet normal -0.831482 0 0.555552
    outer loop
      vertex 20.6492 51.2 66.4645
      vertex 21.733 52 68.0866
      vertex 20.6492 52 66.4645
    endloop
  endfacet
  facet normal -0.831482 0 0.555552
    outer loop
      vertex 21.733 52 68.0866
      vertex 20.6492 51.2 66.4645
      vertex 21.733 51.2 68.0866
    endloop
  endfacet
  facet normal -0.555563 0 0.831474
    outer loop
      vertex 19.027 52 65.3806
      vertex 20.6492 51.2 66.4645
      vertex 20.6492 52 66.4645
    endloop
  endfacet
  facet normal -0.555563 0 0.831474
    outer loop
      vertex 20.6492 51.2 66.4645
      vertex 19.027 52 65.3806
      vertex 19.027 51.2 65.3806
    endloop
  endfacet
  facet normal -0.195091 0 0.980785
    outer loop
      vertex 17.1136 52 65
      vertex 19.027 51.2 65.3806
      vertex 19.027 52 65.3806
    endloop
  endfacet
  facet normal -0.195091 0 0.980785
    outer loop
      vertex 19.027 51.2 65.3806
      vertex 17.1136 52 65
      vertex 17.1136 51.2 65
    endloop
  endfacet
  facet normal -0 0 1
    outer loop
      vertex -17.1136 52 65
      vertex 17.1136 51.2 65
      vertex 17.1136 52 65
    endloop
  endfacet
  facet normal 0 0 1
    outer loop
      vertex 17.1136 51.2 65
      vertex -17.1136 52 65
      vertex -17.1136 51.2 65
    endloop
  endfacet
  facet normal 0.195081 0 0.980787
    outer loop
      vertex -19.0271 52 65.3806
      vertex -17.1136 51.2 65
      vertex -17.1136 52 65
    endloop
  endfacet
  facet normal 0.195081 0 0.980787
    outer loop
      vertex -17.1136 51.2 65
      vertex -19.0271 52 65.3806
      vertex -19.0271 51.2 65.3806
    endloop
  endfacet
  facet normal 1 -0 0
    outer loop
      vertex -33.95 34.8 70
      vertex -33.95 51.2 53.8461
      vertex -33.95 51.2 70
    endloop
  endfacet
  facet normal 1 0 0
    outer loop
      vertex -33.95 47 45.1859
      vertex -33.95 34.8 70
      vertex -33.95 47 35.5833
    endloop
  endfacet
  facet normal 1 0 0
    outer loop
      vertex -33.95 51.2 53.8461
      vertex -33.95 34.8 70
      vertex -33.95 47 45.1859
    endloop
  endfacet
  facet normal 1 0 0
    outer loop
      vertex -33.95 34.8 0.799999
      vertex -33.95 51.2 26.9231
      vertex -33.95 47 35.5833
    endloop
  endfacet
  facet normal 1 0 0
    outer loop
      vertex -33.95 34.8 0.799999
      vertex -33.95 47 35.5833
      vertex -33.95 34.8 70
    endloop
  endfacet
  facet normal 1 0 0
    outer loop
      vertex -33.95 51.2 26.9231
      vertex -33.95 34.8 0.799999
      vertex -33.95 51.2 0.799999
    endloop
  endfacet
  facet normal 1 0 0
    outer loop
      vertex -33.95 4.6 35.5833
      vertex -33.95 0.399999 26.9231
      vertex -33.95 0.4 26.9231
    endloop
  endfacet
  facet normal 1 0 0
    outer loop
      vertex -33.95 4.6 35.5833
      vertex -33.95 16.8 70
      vertex -33.95 4.6 45.1859
    endloop
  endfacet
  facet normal 1 0 0
    outer loop
      vertex -33.95 0.4 53.8461
      vertex -33.95 16.8 70
      vertex -33.95 0.4 70
    endloop
  endfacet
  facet normal 1 0 0
    outer loop
      vertex -33.95 16.8 70
      vertex -33.95 0.4 53.8461
      vertex -33.95 4.6 45.1859
    endloop
  endfacet
  facet normal 1 0 0
    outer loop
      vertex -33.95 4.6 45.1859
      vertex -33.95 0.4 53.8461
      vertex -33.95 0.399999 53.8461
    endloop
  endfacet
  facet normal 1 0 0
    outer loop
      vertex -33.95 16.8 70
      vertex -33.95 4.6 35.5833
      vertex -33.95 16.8 0.799999
    endloop
  endfacet
  facet normal 1 -0 0
    outer loop
      vertex -33.95 0.4 26.9231
      vertex -33.95 16.8 0.799999
      vertex -33.95 4.6 35.5833
    endloop
  endfacet
  facet normal 1 0 0
    outer loop
      vertex -33.95 16.8 0.799999
      vertex -33.95 0.4 26.9231
      vertex -33.95 0.4 0.799999
    endloop
  endfacet
  facet normal 1 -0 0
    outer loop
      vertex -33.95 -0.400001 70
      vertex -33.95 -0.4 53.8461
      vertex -33.95 -0.4 70
    endloop
  endfacet
  facet normal 1 0 0
    outer loop
      vertex -33.95 -0.4 53.8461
      vertex -33.95 -0.400001 70
      vertex -33.95 -0.400001 53.8461
    endloop
  endfacet
  facet normal 1 -0 0
    outer loop
      vertex -33.95 -0.400001 26.9231
      vertex -33.95 -0.4 0
      vertex -33.95 -0.4 26.9231
    endloop
  endfacet
  facet normal 1 0 0
    outer loop
      vertex -33.95 -0.4 0
      vertex -33.95 -0.400001 26.9231
      vertex -33.95 -0.400001 0
    endloop
  endfacet
  facet normal 1 -0 0
    outer loop
      vertex -33.95 17.6 70
      vertex -33.95 34 0.799999
      vertex -33.95 34 70
    endloop
  endfacet
  facet normal 1 0 0
    outer loop
      vertex -33.95 34 0.799999
      vertex -33.95 17.6 70
      vertex -33.95 17.6 0.799999
    endloop
  endfacet
  facet normal 0 0.899769 0.436367
    outer loop
      vertex -33.95 51.2 26.9231
      vertex -34.75 47 35.5833
      vertex -33.95 47 35.5833
    endloop
  endfacet
  facet normal 0 0.899769 0.436367
    outer loop
      vertex -34.75 47 35.5833
      vertex -33.95 51.2 26.9231
      vertex -34.75 51.2 26.9231
    endloop
  endfacet
  facet normal 0 1 -0
    outer loop
      vertex -33.95 47 35.5833
      vertex -34.75 47 45.1859
      vertex -33.95 47 45.1859
    endloop
  endfacet
  facet normal 0 1 0
    outer loop
      vertex -34.75 47 45.1859
      vertex -33.95 47 35.5833
      vertex -34.75 47 35.5833
    endloop
  endfacet
  facet normal 0 0.899769 -0.436367
    outer loop
      vertex -33.95 47 45.1859
      vertex -34.75 51.2 53.8461
      vertex -33.95 51.2 53.8461
    endloop
  endfacet
  facet normal 0 0.899769 -0.436367
    outer loop
      vertex -34.75 51.2 53.8461
      vertex -33.95 47 45.1859
      vertex -34.75 47 45.1859
    endloop
  endfacet
  facet normal 0 -1 0
    outer loop
      vertex -34.75 -0.400001 53.8461
      vertex -33.95 -0.400001 70
      vertex -34.75 -0.400001 70
    endloop
  endfacet
  facet normal 0 -1 -0
    outer loop
      vertex -33.95 -0.400001 70
      vertex -34.75 -0.400001 53.8461
      vertex -33.95 -0.400001 53.8461
    endloop
  endfacet
  facet normal 0 0 -1
    outer loop
      vertex -34.75 0.399986 53.8461
      vertex -33.95 0.399999 53.8461
      vertex -33.95 0.399986 53.8461
    endloop
  endfacet
  facet normal 1.46212e-05 -0.899768 -0.436368
    outer loop
      vertex -34.75 4.6 45.1859
      vertex -33.95 0.399999 53.8461
      vertex -34.75 0.399986 53.8461
    endloop
  endfacet
  facet normal 0 -0.899769 -0.436367
    outer loop
      vertex -33.95 0.399999 53.8461
      vertex -34.75 4.6 45.1859
      vertex -33.95 4.6 45.1859
    endloop
  endfacet
  facet normal 0 -1 0
    outer loop
      vertex -34.75 4.6 35.5833
      vertex -33.95 4.6 45.1859
      vertex -34.75 4.6 45.1859
    endloop
  endfacet
  facet normal 0 -1 -0
    outer loop
      vertex -33.95 4.6 45.1859
      vertex -34.75 4.6 35.5833
      vertex -33.95 4.6 35.5833
    endloop
  endfacet
  facet normal 0 -0.899769 0.436367
    outer loop
      vertex -34.75 4.6 35.5833
      vertex -33.95 0.399999 26.9231
      vertex -33.95 4.6 35.5833
    endloop
  endfacet
  facet normal 1.46212e-05 -0.899768 0.436368
    outer loop
      vertex -34.75 0.399986 26.9231
      vertex -33.95 0.399999 26.9231
      vertex -34.75 4.6 35.5833
    endloop
  endfacet
  facet normal 0 0 1
    outer loop
      vertex -33.95 0.399999 26.9231
      vertex -34.75 0.399986 26.9231
      vertex -33.95 0.399986 26.9231
    endloop
  endfacet
  facet normal 0 -1 0
    outer loop
      vertex -34.75 -0.400001 0
      vertex -33.95 -0.400001 26.9231
      vertex -34.75 -0.400001 26.9231
    endloop
  endfacet
  facet normal 0 -1 -0
    outer loop
      vertex -33.95 -0.400001 26.9231
      vertex -34.75 -0.400001 0
      vertex -33.95 -0.400001 0
    endloop
  endfacet
  facet normal -1 0 0
    outer loop
      vertex 33.95 4.6 45.1859
      vertex 33.95 0.399986 53.8461
      vertex 33.95 0.4 53.8461
    endloop
  endfacet
  facet normal -1 0 0
    outer loop
      vertex 33.95 16.8 0.799999
      vertex 33.95 4.6 35.5833
      vertex 33.95 16.8 70
    endloop
  endfacet
  facet normal -1 0 0
    outer loop
      vertex 33.95 0.4 26.9231
      vertex 33.95 16.8 0.799999
      vertex 33.95 0.4 0.799999
    endloop
  endfacet
  facet normal -1 0 0
    outer loop
      vertex 33.95 16.8 0.799999
      vertex 33.95 0.4 26.9231
      vertex 33.95 4.6 35.5833
    endloop
  endfacet
  facet normal -1 0 0
    outer loop
      vertex 33.95 4.6 35.5833
      vertex 33.95 0.4 26.9231
      vertex 33.95 0.399986 26.9231
    endloop
  endfacet
  facet normal -1 0 0
    outer loop
      vertex 33.95 4.6 45.1859
      vertex 33.95 16.8 70
      vertex 33.95 4.6 35.5833
    endloop
  endfacet
  facet normal -1 0 0
    outer loop
      vertex 33.95 0.4 53.8461
      vertex 33.95 16.8 70
      vertex 33.95 4.6 45.1859
    endloop
  endfacet
  facet normal -1 -0 0
    outer loop
      vertex 33.95 16.8 70
      vertex 33.95 0.4 53.8461
      vertex 33.95 0.4 70
    endloop
  endfacet
  facet normal -1 0 0
    outer loop
      vertex 33.95 34.8 0.799999
      vertex 33.95 51.2 26.9231
      vertex 33.95 51.2 0.799999
    endloop
  endfacet
  facet normal -1 0 0
    outer loop
      vertex 33.95 34.8 70
      vertex 33.95 47 35.5833
      vertex 33.95 34.8 0.799999
    endloop
  endfacet
  facet normal -1 -0 0
    outer loop
      vertex 33.95 51.2 26.9231
      vertex 33.95 34.8 0.799999
      vertex 33.95 47 35.5833
    endloop
  endfacet
  facet normal -1 0 0
    outer loop
      vertex 33.95 34.8 70
      vertex 33.95 51.2 53.8461
      vertex 33.95 47 45.1859
    endloop
  endfacet
  facet normal -1 0 0
    outer loop
      vertex 33.95 47 35.5833
      vertex 33.95 34.8 70
      vertex 33.95 47 45.1859
    endloop
  endfacet
  facet normal -1 0 0
    outer loop
      vertex 33.95 51.2 53.8461
      vertex 33.95 34.8 70
      vertex 33.95 51.2 70
    endloop
  endfacet
  facet normal -1 0 0
    outer loop
      vertex 33.95 -0.400001 53.8461
      vertex 33.95 -0.4 70
      vertex 33.95 -0.4 53.8461
    endloop
  endfacet
  facet normal -1 -0 0
    outer loop
      vertex 33.95 -0.4 70
      vertex 33.95 -0.400001 53.8461
      vertex 33.95 -0.400001 70
    endloop
  endfacet
  facet normal -1 0 0
    outer loop
      vertex 33.95 -0.400001 0
      vertex 33.95 -0.4 26.9231
      vertex 33.95 -0.4 0
    endloop
  endfacet
  facet normal -1 -0 0
    outer loop
      vertex 33.95 -0.4 26.9231
      vertex 33.95 -0.400001 0
      vertex 33.95 -0.400001 26.9231
    endloop
  endfacet
  facet normal -1 0 0
    outer loop
      vertex 33.95 17.6 0.799999
      vertex 33.95 34 70
      vertex 33.95 34 0.799999
    endloop
  endfacet
  facet normal -1 -0 0
    outer loop
      vertex 33.95 34 70
      vertex 33.95 17.6 0.799999
      vertex 33.95 17.6 70
    endloop
  endfacet
  facet normal 0 0.899769 0.436367
    outer loop
      vertex 34.75 51.2 26.9231
      vertex 33.95 47 35.5833
      vertex 34.75 47 35.5833
    endloop
  endfacet
  facet normal 0 0.899769 0.436367
    outer loop
      vertex 33.95 47 35.5833
      vertex 34.75 51.2 26.9231
      vertex 33.95 51.2 26.9231
    endloop
  endfacet
  facet normal 0 1 -0
    outer loop
      vertex 34.75 47 35.5833
      vertex 33.95 47 45.1859
      vertex 34.75 47 45.1859
    endloop
  endfacet
  facet normal 0 1 0
    outer loop
      vertex 33.95 47 45.1859
      vertex 34.75 47 35.5833
      vertex 33.95 47 35.5833
    endloop
  endfacet
  facet normal 0 0.899769 -0.436367
    outer loop
      vertex 34.75 47 45.1859
      vertex 33.95 51.2 53.8461
      vertex 34.75 51.2 53.8461
    endloop
  endfacet
  facet normal 0 0.899769 -0.436367
    outer loop
      vertex 33.95 51.2 53.8461
      vertex 34.75 47 45.1859
      vertex 33.95 47 45.1859
    endloop
  endfacet
  facet normal 0 -1 0
    outer loop
      vertex 33.95 -0.400001 53.8461
      vertex 34.75 -0.400001 70
      vertex 33.95 -0.400001 70
    endloop
  endfacet
  facet normal 0 -1 -0
    outer loop
      vertex 34.75 -0.400001 70
      vertex 33.95 -0.400001 53.8461
      vertex 34.75 -0.400001 53.8461
    endloop
  endfacet
  facet normal 0 -0.899768 -0.436368
    outer loop
      vertex 33.95 4.6 45.1859
      vertex 34.75 0.399986 53.8461
      vertex 33.95 0.399986 53.8461
    endloop
  endfacet
  facet normal 0 -0.899768 -0.436368
    outer loop
      vertex 34.75 0.399986 53.8461
      vertex 33.95 4.6 45.1859
      vertex 34.75 4.6 45.1859
    endloop
  endfacet
  facet normal 0 -1 0
    outer loop
      vertex 33.95 4.6 35.5833
      vertex 34.75 4.6 45.1859
      vertex 33.95 4.6 45.1859
    endloop
  endfacet
  facet normal 0 -1 -0
    outer loop
      vertex 34.75 4.6 45.1859
      vertex 33.95 4.6 35.5833
      vertex 34.75 4.6 35.5833
    endloop
  endfacet
  facet normal 0 -0.899768 0.436368
    outer loop
      vertex 33.95 0.399986 26.9231
      vertex 34.75 4.6 35.5833
      vertex 33.95 4.6 35.5833
    endloop
  endfacet
  facet normal 0 -0.899768 0.436368
    outer loop
      vertex 34.75 4.6 35.5833
      vertex 33.95 0.399986 26.9231
      vertex 34.75 0.399986 26.9231
    endloop
  endfacet
  facet normal 0 -1 0
    outer loop
      vertex 33.95 -0.400001 0
      vertex 34.75 -0.400001 26.9231
      vertex 33.95 -0.400001 26.9231
    endloop
  endfacet
  facet normal 0 -1 -0
    outer loop
      vertex 34.75 -0.400001 26.9231
      vertex 33.95 -0.400001 0
      vertex 34.75 -0.400001 0
    endloop
  endfacet
  facet normal -0 0 1
    outer loop
      vertex -33.95 51.2 0.799999
      vertex 33.95 34.8 0.799999
      vertex 33.95 51.2 0.799999
    endloop
  endfacet
  facet normal 0 0 1
    outer loop
      vertex 33.95 34.8 0.799999
      vertex -33.95 51.2 0.799999
      vertex -33.95 34.8 0.799999
    endloop
  endfacet
  facet normal -0 0 1
    outer loop
      vertex -33.95 34 0.799999
      vertex 33.95 17.6 0.799999
      vertex 33.95 34 0.799999
    endloop
  endfacet
  facet normal 0 0 1
    outer loop
      vertex 33.95 17.6 0.799999
      vertex -33.95 34 0.799999
      vertex -33.95 17.6 0.799999
    endloop
  endfacet
  facet normal -0 0 1
    outer loop
      vertex -33.95 16.8 0.799999
      vertex 33.95 0.4 0.799999
      vertex 33.95 16.8 0.799999
    endloop
  endfacet
  facet normal 0 0 1
    outer loop
      vertex 33.95 0.4 0.799999
      vertex -33.95 16.8 0.799999
      vertex -33.95 0.4 0.799999
    endloop
  endfacet
endsolid OpenSCAD_Model
